<svg width="58" height="51" viewBox="0 0 58 51" fill="none" xmlns="http://www.w3.org/2000/svg">
<path d="M28.4467 7.125H28.4435C27.2882 7.125 26.3516 8.0616 26.3516 9.21696V25.5975C26.3516 26.7529 27.2882 27.6895 28.4435 27.6895H28.4467C29.6021 27.6895 30.5387 26.7529 30.5387 25.5975V9.21696C30.5387 8.0616 29.6021 7.125 28.4467 7.125Z" fill="#252524"/>
<path d="M28.4464 10.631C31.1404 10.631 33.3244 8.44706 33.3244 5.75301C33.3244 3.05896 31.1404 0.875 28.4464 0.875C25.7523 0.875 23.5684 3.05896 23.5684 5.75301C23.5684 8.44706 25.7523 10.631 28.4464 10.631Z" fill="#B1B2B2"/>
<path d="M43.5611 21.0996H22.2832C16.797 21.0996 12.3496 25.547 12.3496 31.0332V40.9409C12.3496 46.4271 16.797 50.8745 22.2832 50.8745H43.5611C49.0473 50.8745 53.4947 46.4271 53.4947 40.9409V31.0332C53.4947 25.547 49.0473 21.0996 43.5611 21.0996Z" fill="#00BFA1"/>
<path d="M6.24203 28.752H4.82801C2.53156 28.752 0.669922 30.6136 0.669922 32.91V39.6314C0.669922 41.9279 2.53156 43.7895 4.82801 43.7895H6.24203C8.53848 43.7895 10.4001 41.9279 10.4001 39.6314V32.91C10.4001 30.6136 8.53848 28.752 6.24203 28.752Z" fill="#252524"/>
<g opacity="0.4">
<path d="M43.5611 21.0996H22.2832C16.797 21.0996 12.3496 25.547 12.3496 31.0332V40.9409C12.3496 46.4271 16.797 50.8745 22.2832 50.8745H43.5611C49.0473 50.8745 53.4947 46.4271 53.4947 40.9409V31.0332C53.4947 25.547 49.0473 21.0996 43.5611 21.0996Z" fill="white"/>
</g>
<path d="M36.4166 21.0996H15.1387C9.65249 21.0996 5.20508 25.547 5.20508 31.0332V40.9409C5.20508 46.4271 9.65249 50.8745 15.1387 50.8745H36.4166C41.9028 50.8745 46.3502 46.4271 46.3502 40.9409V31.0332C46.3502 25.547 41.9028 21.0996 36.4166 21.0996Z" fill="#00BFA1"/>
<path d="M32.5445 24.958H15.3795C11.2715 24.958 7.94141 28.2881 7.94141 32.3961V38.9561C7.94141 43.064 11.2715 46.3941 15.3795 46.3941H32.5445C36.6525 46.3941 39.9826 43.064 39.9826 38.9561V32.3961C39.9826 28.2881 36.6525 24.958 32.5445 24.958Z" fill="#252524"/>
<g opacity="0.97">
<path d="M14.7522 39.4053C17.1556 39.4053 19.104 37.2098 19.104 34.5015C19.104 31.7932 17.1556 29.5977 14.7522 29.5977C12.3488 29.5977 10.4004 31.7932 10.4004 34.5015C10.4004 37.2098 12.3488 39.4053 14.7522 39.4053Z" fill="white"/>
</g>
<g opacity="0.97">
<path d="M30.5393 39.4053C32.9427 39.4053 34.8911 37.2098 34.8911 34.5015C34.8911 31.7932 32.9427 29.5977 30.5393 29.5977C28.1359 29.5977 26.1875 31.7932 26.1875 34.5015C26.1875 37.2098 28.1359 39.4053 30.5393 39.4053Z" fill="white"/>
</g>
<path d="M51.9237 28.752H50.5097C48.2132 28.752 46.3516 30.6136 46.3516 32.91V39.6314C46.3516 41.9279 48.2132 43.7895 50.5097 43.7895H51.9237C54.2201 43.7895 56.0818 41.9279 56.0818 39.6314V32.91C56.0818 30.6136 54.2201 28.752 51.9237 28.752Z" fill="#252524"/>
<path d="M53.6921 28.752H53.295C51.2304 28.752 49.5566 30.4257 49.5566 32.4904V40.0511C49.5566 42.1158 51.2304 43.7895 53.295 43.7895H53.6921C55.7568 43.7895 57.4305 42.1158 57.4305 40.0511V32.4904C57.4305 30.4257 55.7568 28.752 53.6921 28.752Z" fill="#252524"/>
<g opacity="0.16">
<path d="M53.6921 28.752H53.295C51.2304 28.752 49.5566 30.4257 49.5566 32.4904V40.0511C49.5566 42.1158 51.2304 43.7895 53.295 43.7895H53.6921C55.7568 43.7895 57.4305 42.1158 57.4305 40.0511V32.4904C57.4305 30.4257 55.7568 28.752 53.6921 28.752Z" fill="white"/>
</g>
</svg>
