<svg width="32" height="32" viewBox="0 0 32 32" fill="none" xmlns="http://www.w3.org/2000/svg">
<circle cx="16" cy="16" r="16" fill="#00BFA1"/>
<mask id="mask0_3306_5711" style="mask-type:alpha" maskUnits="userSpaceOnUse" x="0" y="0" width="32" height="32">
<circle cx="16" cy="16" r="16" fill="#E6E6E6"/>
</mask>
<g mask="url(#mask0_3306_5711)">
<path d="M17.912 14.0453C17.912 14.0453 21.9038 18.9162 23.3872 22.9538C23.9872 24.5914 23.133 26.4373 21.4871 27.0123C19.4412 27.729 16.4703 28.1081 14.0119 25.7581L9.35345 22.283C9.35345 22.283 6.51171 20.0037 7.99924 15.8911C9.48678 11.7827 15.6286 10.9577 17.9078 14.0453H17.912Z" fill="#F4D5CC"/>
<path d="M10.8952 20.6992L14.5703 40.9998L25.6123 38.1747L18.5038 24.5368L10.8952 20.6992Z" fill="#F4D5CC"/>
<path d="M16.7696 15.1451C15.8945 15.8118 14.2237 16.9452 11.7278 18.0535C11.7278 18.0535 14.8987 19.2036 14.9778 22.8078C15.057 26.4121 11.6778 27.1288 11.6778 27.1288L7.19847 20.3953C5.83176 18.4744 5.61093 15.9576 6.65262 13.8409C8.04849 11.7575 13.2236 8.49911 14.057 6.02404C14.4237 4.94068 15.8279 4.64484 16.6071 5.48653C18.2946 7.31158 20.1196 10.7533 18.1321 13.7451C17.7696 14.2909 17.2904 14.7451 16.7696 15.1451Z" fill="#252524"/>
<path d="M20.2702 17.2451L23.087 18.2576C23.7828 18.5077 23.9828 19.3952 23.4578 19.9202L21.7244 21.6536L20.2661 17.2493L20.2702 17.2451Z" fill="#F4D5CC"/>
</g>
</svg>
